<svg width="18" height="18" viewBox="0 0 18 18" fill="none" xmlns="http://www.w3.org/2000/svg">
<path d="M6.83057 4.086C7.27907 2.7735 9.09257 2.73375 9.62432 3.96675L9.66932 4.08675L10.2746 5.85675C10.4133 6.26267 10.6374 6.63413 10.9319 6.94607C11.2264 7.258 11.5843 7.50316 11.9816 7.665L12.1443 7.72575L13.9143 8.33025C15.2268 8.77875 15.2666 10.5922 14.0343 11.124L13.9143 11.169L12.1443 11.7743C11.7383 11.9129 11.3667 12.137 11.0546 12.4314C10.7425 12.7259 10.4972 13.0839 10.3353 13.4813L10.2746 13.6432L9.67007 15.414C9.22157 16.7265 7.40807 16.7662 6.87707 15.534L6.83057 15.414L6.22607 13.644C6.08746 13.2379 5.86335 12.8663 5.56888 12.5543C5.27441 12.2422 4.91642 11.9969 4.51907 11.835L4.35707 11.7743L2.58707 11.1698C1.27382 10.7212 1.23407 8.90775 2.46707 8.37675L2.58707 8.33025L4.35707 7.72575C4.763 7.58704 5.13446 7.3629 5.44639 7.06843C5.75832 6.77396 6.00348 6.41602 6.16532 6.01875L6.22607 5.85675L6.83057 4.086ZM14.2503 1.5C14.3906 1.5 14.5281 1.53936 14.6472 1.6136C14.7662 1.68785 14.8621 1.794 14.9238 1.92L14.9598 2.00775L15.2223 2.77725L15.9926 3.03975C16.1332 3.08752 16.2564 3.17596 16.3467 3.29386C16.437 3.41176 16.4903 3.55381 16.4998 3.70202C16.5093 3.85022 16.4745 3.9979 16.4 4.12634C16.3254 4.25478 16.2145 4.3582 16.0811 4.4235L15.9926 4.4595L15.2231 4.722L14.9606 5.49225C14.9127 5.63282 14.8242 5.75602 14.7063 5.84624C14.5883 5.93647 14.4462 5.98964 14.2981 5.99904C14.1499 6.00844 14.0022 5.97363 13.8738 5.89903C13.7454 5.82443 13.6421 5.7134 13.5768 5.58L13.5408 5.49225L13.2783 4.72275L12.5081 4.46025C12.3675 4.41248 12.2442 4.32404 12.1539 4.20614C12.0636 4.08824 12.0103 3.94619 12.0009 3.79798C11.9914 3.64978 12.0261 3.5021 12.1007 3.37366C12.1752 3.24522 12.2862 3.1418 12.4196 3.0765L12.5081 3.0405L13.2776 2.778L13.5401 2.00775C13.5906 1.85957 13.6863 1.73093 13.8137 1.63987C13.9411 1.54882 14.0937 1.49991 14.2503 1.5Z" fill="black"/>
</svg>
