<svg width="15" height="15" viewBox="0 0 15 15" fill="none" xmlns="http://www.w3.org/2000/svg">
<g clip-path="url(#clip0_74_115)">
<path d="M0 0V15H15V0H0ZM8.98594 10.6934H7.89817C7.84972 10.6934 7.83029 10.6582 7.81093 10.613L7.18934 8.61328H4.96564L4.37323 10.5904C4.36351 10.6581 4.33433 10.6934 4.27611 10.6934H3.2855C3.21756 10.6934 3.19822 10.6582 3.21756 10.5793C3.74203 8.85176 4.62565 5.97255 5.24713 4.01924C5.27631 3.90639 5.30549 3.79811 5.3248 3.40292C5.3248 3.3578 5.35397 3.33984 5.38315 3.33984H6.72334C6.77183 3.33984 6.78155 3.34556 6.80098 3.39067C7.51942 5.70524 8.3061 8.25603 9.04412 10.5932C9.06357 10.6608 9.04415 10.6934 8.98594 10.6934ZM11.25 10.5986C11.25 10.6552 11.2307 10.6934 11.1735 10.6934H10.1812C10.1239 10.6934 10.1074 10.6663 10.1074 10.5873V5.29201C10.1074 5.22425 10.1143 5.18555 10.1621 5.18555H11.1735C11.2307 5.18555 11.25 5.21303 11.25 5.29201V10.5986ZM10.6679 4.45652C10.2861 4.45652 10.0286 4.18556 10.0286 3.75647C10.0286 3.33876 10.3053 3.05651 10.6774 3.05651C11.0686 3.05651 11.3072 3.33876 11.3072 3.75647C11.3072 4.18556 11.0495 4.45652 10.6679 4.45652Z" fill="black"/>
<path d="M6.05291 4.45312C5.90716 5.18555 5.50913 6.47461 5.21777 7.5293H6.92684C6.7326 6.76758 6.25673 5.24414 6.06264 4.45312H6.05291Z" fill="black"/>
</g>
<defs>
<clipPath id="clip0_74_115">
<rect width="15" height="15" rx="4" fill="white"/>
</clipPath>
</defs>
</svg>
