<svg width="16" height="16" viewBox="0 0 16 16" fill="none" xmlns="http://www.w3.org/2000/svg">
<g clip-path="url(#clip0_74_109)">
<path d="M5.35144 4.40479C4.96006 4.40479 4.66211 4.41641 4.60156 4.42813V7.18694C4.66211 7.19857 4.83001 7.21016 5.25153 7.21016C6.04415 7.21016 6.8055 6.98426 6.8055 5.81756C6.8055 4.88417 6.2947 4.40479 5.35144 4.40479Z" fill="black"/>
<path d="M0 0V15.5H15.5V0H0ZM5.21808 8.3252C4.93711 8.3252 4.66211 8.3252 4.60156 8.3252V10.9688C4.60156 11.0389 4.57589 11.0498 4.52564 11.0498H3.46195C3.41185 11.0498 3.39062 11.0389 3.39062 10.9806V3.36756C3.39062 3.3091 3.40125 3.28724 3.45135 3.28724C3.83265 3.2755 4.58255 3.26526 5.3452 3.26526C7.31194 3.26526 8.06384 4.4102 8.0739 5.76364C8.07386 7.61855 6.69309 8.3252 5.21808 8.3252ZM10.4454 11.2127C9.92278 11.2127 9.27154 11.1629 8.85734 10.8595C8.81783 10.8362 8.80957 10.8013 8.80957 10.7428V9.66949C8.80957 9.61115 8.8376 9.58784 8.86715 9.61115C9.37983 9.99617 9.94246 10.1056 10.4551 10.1056C10.9087 10.1056 11.065 9.80324 11.065 9.54661C11.065 9.2433 10.9544 9.06817 10.2444 8.72992C9.22886 8.23988 8.80476 7.81878 8.80476 6.96713C8.80476 6.02205 9.51134 5.24145 10.6748 5.24145C11.2762 5.24145 11.6936 5.25759 11.9698 5.44413C12.0191 5.49084 12.0185 5.52581 12.0185 5.59589V6.55256C12.0185 6.6225 11.9895 6.65758 11.9403 6.6225C11.5853 6.38921 11.0918 6.31492 10.5791 6.31492C10.0959 6.31492 9.96862 6.61711 9.96862 6.83877C9.96862 7.11886 10.0974 7.27047 10.837 7.62052C11.8526 8.11056 12.2874 8.54223 12.2874 9.38216C12.2874 10.5489 11.53 11.2127 10.4454 11.2127Z" fill="black"/>
</g>
<defs>
<clipPath id="clip0_74_109">
<rect width="15.5" height="15.5" rx="4" fill="white"/>
</clipPath>
</defs>
</svg>
